{
  "accessors": [
    {
      "bufferView": 1,
      "componentType": 5126,
      "count": 732,
      "max": [
        0.41811203956604004,
        0.55169689655303955,
        0.48585391044616699
      ],
      "min": [
        -0.43318170309066772,
        -0.10255622118711472,
        -0.89589869976043701
      ],
      "type": "VEC3"
    },
    {
      "bufferView": 1,
      "byteOffset": 8784,
      "componentType": 5126,
      "count": 732,
      "max": [
        0.9825584888458252,
        0.99978017807006836,
        0.98461580276489258
      ],
      "min": [
        -0.99836987257003784,
        -0.99994200468063354,
        -0.99370110034942627
      ],
      "type": "VEC3"
    },
    {
      "bufferView": 0,
      "componentType": 5125,
      "count": 732,
      "max": [
        731
      ],
      "min": [
        0
      ],
      "type": "SCALAR"
    }
  ],
  "asset": {
    "extras": {
      "author": "maxhuk (https://sketchfab.com/maxhuk)",
      "license": "CC-BY-4.0 (http://creativecommons.org/licenses/by/4.0/)",
      "source": "https://sketchfab.com/3d-models/fallen-leaf-7fb41742c1ca44549a56f2714d8d0659",
      "title": "Fallen Leaf"
    },
    "generator": "Sketchfab-9.37.0",
    "version": "2.0"
  },
  "bufferViews": [
    {
      "buffer": 0,
      "byteLength": 2928,
      "byteOffset": 0,
      "name": "floatBufferViews",
      "target": 34963
    },
    {
      "buffer": 0,
      "byteLength": 17568,
      "byteOffset": 2928,
      "byteStride": 12,
      "name": "floatBufferViews",
      "target": 34962
    }
  ],
  "buffers": [
    {
      "byteLength": 20496,
      "uri": "scene.bin"
    }
  ],
  "materials": [
    {
      "doubleSided": true,
      "name": "Material.001",
      "pbrMetallicRoughness": {
        "baseColorFactor": [
          0.69940240552239319,
          0.47338646081449376,
          0.39480038671125239,
          1
        ],
        "metallicFactor": 0,
        "roughnessFactor": 0.634048057688683
      }
    }
  ],
  "meshes": [
    {
      "primitives": [
        {
          "attributes": {
            "NORMAL": 1,
            "POSITION": 0
          },
          "indices": 2,
          "material": 0,
          "mode": 4
        }
      ]
    }
  ],
  "nodes": [
    {
      "children": [
        1
      ],
      "name": "RootNode (gltf orientation matrix)",
      "rotation": [
        -0.70710678118654746,
        -0,
        -0,
        0.70710678118654757
      ]
    },
    {
      "children": [
        2
      ],
      "name": "RootNode (model correction matrix)"
    },
    {
      "children": [
        3
      ],
      "name": "root"
    },
    {
      "children": [
        4
      ],
      "matrix": [
        1,
        0,
        0,
        0,
        0,
        2.2204460492503131e-16,
        1,
        0,
        0,
        -1,
        2.2204460492503131e-16,
        0,
        0,
        0,
        0,
        1
      ],
      "name": "GLTF_SceneRootNode"
    },
    {
      "children": [
        5
      ],
      "matrix": [
        8.2818708419799805,
        0,
        0,
        0,
        0,
        8.2818708419799805,
        0,
        0,
        0,
        0,
        8.2818708419799805,
        0,
        0,
        0,
        0,
        1
      ],
      "name": "Merged 2_0"
    },
    {
      "mesh": 0,
      "name": ""
    }
  ],
  "scene": 0,
  "scenes": [
    {
      "name": "OSG_Scene",
      "nodes": [
        0
      ]
    }
  ]
}

